<svg version="1.2" xmlns="http://www.w3.org/2000/svg" viewBox="0 0 18 12" width="18" height="12">
	<title>Union 1</title>
	<style>
		.s0 { fill: #a1a1a1 } 
	</style>
	<path id="Union 1" class="s0" d="m5.3 11.7q-1.7-0.1-3.1-1.1-1.7-1.2-2.2-3.4-0.1-0.7-0.1-1.5 0.1-1.8 1.3-3.3 1.2-1.4 3.1-1.9 0.4-0.1 0.9-0.2 0.3 0 0.6 0 1.4 0 2.7 0.8c0.5 0.3 0.8 0.6 1 0.7q-0.9 0.8-1.7 1.7c-0.4-0.4-0.9-0.7-1.7-0.8q-0.2-0.1-0.5-0.1c-1.5 0-2.9 1.2-3.2 2.7q-0.2 0.5-0.1 1c0.1 1.4 1 2.6 2.3 3q0.5 0.1 1 0.1 0.1 0 0.2 0 0.9 0 1.7-0.5c0.9-0.6 1.1-1.5 1.1-1.7h-3c0-0.1 0-1.5 0-2.2v-0.1h5.4c0.3 1.7 0 3.4-1 4.8-0.8 0.9-1.7 1.5-2.9 1.8q-0.7 0.2-1.5 0.2-0.2 0-0.3 0zm10.6-3.2h-1.5v-2h-2v-1.5h2v-2h0.1 1.4 0.1l-0.1 2h2v1.5h-2v2z"/>
</svg>