<svg version="1.2" xmlns="http://www.w3.org/2000/svg" viewBox="0 0 15 14" width="15" height="14">
	<title>Union 2</title>
	<style>
		.s0 { fill: #a0a0a0 } 
	</style>
	<path id="Union 2" fill-rule="evenodd" class="s0" d="m3.3 13.5c-1.5-0.4-2.4-1.4-2.7-3-0.2-1.2-0.2-6.5 0.2-7.7q0.6-2.3 2.9-2.6c0.7-0.2 2.1-0.2 3.5-0.2 1.2 0 2.5 0 3.3 0.1 0.9 0 1.8 0.3 2.5 1 0.6 0.6 1 1.4 1.1 2.3 0.1 1.1 0.1 6.2-0.2 7.4q-0.6 2.3-3 2.7c-0.6 0.1-2.2 0.2-3.8 0.2-1.6 0-3.2-0.1-3.8-0.2zm0.8-12.2c-1.2 0.2-2 0.9-2.2 2.1-0.2 1.3-0.2 6-0.1 6.9 0.2 1 0.7 1.7 1.7 1.9 0.6 0.2 2.1 0.2 3.7 0.2 1.4 0 2.8 0 3.4-0.1 1.2-0.1 2-0.8 2.2-2 0.2-1.2 0.2-5.6 0-6.8-0.1-1.2-0.8-1.9-2-2.1-0.6-0.1-2-0.2-3.4-0.2-1.4 0-2.7 0.1-3.3 0.1zm-0.3 5.5c0-1.9 1.6-3.5 3.6-3.5 1.9 0 3.4 1.6 3.4 3.5 0 2-1.6 3.5-3.5 3.5-1.9 0-3.5-1.5-3.5-3.5zm1.3 0c-0.1 1.3 0.9 2.3 2.2 2.3 1.2 0 2.3-1 2.3-2.2 0-1.3-1-2.3-2.2-2.3h-0.1c-1.2 0-2.2 1-2.2 2.2zm5.1-3.6c0-0.5 0.3-0.8 0.8-0.8 0.4 0 0.8 0.3 0.8 0.8 0 0.5-0.4 0.8-0.8 0.8-0.5 0-0.8-0.4-0.8-0.8z"/>
</svg>