<svg version="1.2" xmlns="http://www.w3.org/2000/svg" viewBox="0 0 130 130" width="130" height="130">
	<title>Form 24</title>
	<style>
		.s0 { opacity: .4;fill: #a3bbc8 } 
		.s1 { fill: #a3bbc8 } 
		.s2 { fill: #ffffff } 
	</style>
	<path id="Ellipse 11" class="s0" d="m65.5 2c35.1 0 63.5 28.4 63.5 63.5 0 35.1-28.4 63.5-63.5 63.5-35.1 0-63.5-28.4-63.5-63.5 0-35.1 28.4-63.5 63.5-63.5z"/>
	<path id="Ellipse 11" class="s1" d="m65 16c27.1 0 49 21.9 49 49 0 27.1-21.9 49-49 49-27.1 0-49-21.9-49-49 0-27.1 21.9-49 49-49z"/>
	<path id="Form 24" class="s2" d="m75.7 66.7l-16.1 9.8c-0.5 0.3-1 0.5-1.6 0.5q-0.8 0-1.4-0.3c-1-0.5-1.6-1.4-1.6-2.4v-19.6c0-1 0.6-1.9 1.6-2.4 0.9-0.5 2.1-0.4 3 0.2l16.1 9.8c0.8 0.5 1.3 1.3 1.3 2.2 0 0.9-0.5 1.7-1.3 2.2z"/>
</svg>