<svg version="1.2" xmlns="http://www.w3.org/2000/svg" viewBox="0 0 15 13" width="15" height="13">
	<title>Path 2</title>
	<style>
		.s0 { fill: #a0a0a0 } 
	</style>
	<path id="Path 2" class="s0" d="m14.7 2.3q-0.2 0.2-0.3 0.4-0.5 0.6-1.1 1l-0.1 0.1q0.1 0.7 0 1.3-0.2 1.4-0.8 2.6-0.6 1.3-1.6 2.4-1.7 1.7-4.1 2.2-0.8 0.2-1.6 0.2-0.1 0-0.3 0-2.3 0-4.4-1.3 0.3 0 0.6 0 1.2 0 2.3-0.4 0.7-0.3 1.4-0.8c-1.5-0.1-2.5-1.2-2.7-2.1q0.3 0.1 0.5 0.1 0.4 0 0.7-0.1h0.1q-1.3-0.3-1.9-1.4-0.4-0.7-0.4-1.5 0.6 0.3 1.3 0.3-1-0.6-1.2-1.7-0.3-1.2 0.3-2.2 2.4 2.8 6 3.1 0-0.2 0-0.3-0.1-1.1 0.4-1.9 0.7-1.2 2-1.4 0.3 0 0.6 0 1.1 0 2 0.9 0 0 0.1 0 0 0 0 0 1-0.2 1.8-0.7-0.3 1-1.2 1.6 0.8-0.1 1.6-0.4z"/>
</svg>