<svg version="1.2" xmlns="http://www.w3.org/2000/svg" viewBox="0 0 14 14" width="14" height="14">
	<title>Shape 1</title>
	<style>
		.s0 { opacity: .8;fill: #222933 } 
	</style>
	<path id="Shape 1" fill-rule="evenodd" class="s0" d="m13.4 13.2h-12.9c-0.2 0-0.4-0.2-0.4-0.4 0-3 2.1-5.5 4.9-6.4-1-0.6-1.7-1.7-1.7-2.9 0-1.9 1.7-3.5 3.7-3.5 2 0 3.6 1.6 3.6 3.5 0 1.2-0.7 2.3-1.7 2.9 2.8 0.9 4.9 3.4 4.9 6.4 0 0.2-0.2 0.4-0.4 0.4zm-12.4-0.9h11.9c-0.2-2.9-2.8-5.3-5.9-5.3-3.2 0-5.8 2.4-6 5.3zm6-11.5c-1.6 0-2.8 1.2-2.8 2.7 0 1.5 1.2 2.7 2.8 2.7 1.5 0 2.7-1.2 2.7-2.7 0-1.5-1.2-2.7-2.7-2.7z"/>
</svg>